<svg width="18" height="18" viewBox="0 0 18 18" fill="none" xmlns="http://www.w3.org/2000/svg">
    <circle cx="9" cy="9" r="9" fill="#1AD15C"/>
    <path d="M11.405 8.84C11.9034 8.98476 12.2939 9.22857 12.5763 9.57143C12.8588 9.90667 13 10.3219 13 10.8171C13 11.5181 12.7009 12.059 12.1028 12.44C11.513 12.8133 10.649 13 9.5109 13H5V5H9.26168C10.325 5 11.1391 5.18667 11.7041 5.56C12.2773 5.93333 12.5639 6.44 12.5639 7.08C12.5639 7.46857 12.46 7.81524 12.2523 8.12C12.053 8.42476 11.7705 8.66476 11.405 8.84ZM7.00623 6.39429V8.28H9.01246C9.5109 8.28 9.88889 8.2 10.1464 8.04C10.4039 7.88 10.5327 7.64381 10.5327 7.33143C10.5327 7.01905 10.4039 6.78667 10.1464 6.63429C9.88889 6.47429 9.5109 6.39429 9.01246 6.39429H7.00623ZM9.36137 11.6057C9.89304 11.6057 10.2918 11.5257 10.5576 11.3657C10.8318 11.2057 10.9688 10.9581 10.9688 10.6229C10.9688 9.96 10.433 9.62857 9.36137 9.62857H7.00623V11.6057H9.36137Z" fill="white"/>
</svg>
