<svg width="29" height="28" viewBox="0 0 29 28" fill="none" xmlns="http://www.w3.org/2000/svg">
    <circle cx="14.5" cy="14" r="14" fill="#111827"/>
    <path d="M18.052 13.176C18.692 13.3787 19.1933 13.72 19.556 14.2C19.9187 14.6693 20.1 15.2507 20.1 15.944C20.1 16.9253 19.716 17.6827 18.948 18.216C18.1907 18.7387 17.0813 19 15.62 19H9.828V7.8H15.3C16.6653 7.8 17.7107 8.06133 18.436 8.584C19.172 9.10667 19.54 9.816 19.54 10.712C19.54 11.256 19.4067 11.7413 19.14 12.168C18.884 12.5947 18.5213 12.9307 18.052 13.176ZM12.404 9.752V12.392H14.98C15.62 12.392 16.1053 12.28 16.436 12.056C16.7667 11.832 16.932 11.5013 16.932 11.064C16.932 10.6267 16.7667 10.3013 16.436 10.088C16.1053 9.864 15.62 9.752 14.98 9.752H12.404ZM15.428 17.048C16.1107 17.048 16.6227 16.936 16.964 16.712C17.316 16.488 17.492 16.1413 17.492 15.672C17.492 14.744 16.804 14.28 15.428 14.28H12.404V17.048H15.428Z" fill="white"/>
</svg>
