<svg width="76" height="78" viewBox="0 0 76 78" fill="none" xmlns="http://www.w3.org/2000/svg">
    <path d="M74.1841 20.0152C72.2385 9.95735 66.272 3.76666 56.3495 1.83308C44.1808 -0.616484 31.647 -0.610961 19.4804 1.84933C9.75245 3.79915 3.73731 9.9736 1.82414 19.8527C-0.608048 32.4422 -0.608048 45.3823 1.82414 57.9718C3.76974 68.0296 9.72002 74.2203 19.5615 76.1539C31.7448 78.6154 44.2958 78.6154 56.4792 76.1539C66.2072 74.2041 72.2223 68.0296 74.1517 58.1505C75.3787 51.8389 75.9977 45.4238 76 38.9935C75.9993 32.6239 75.3913 26.2689 74.1841 20.0152Z" fill="#1AD15C"/>
    <path d="M42.955 21.5939C42.955 19.5433 40.3077 18.7299 39.1613 20.4283L25.7313 40.325C24.799 41.7063 25.7862 43.5706 27.45 43.5706H33.2479L33.2479 56.559C33.2479 58.6096 35.8952 59.423 37.0416 57.7245L50.4716 37.8278C51.4039 36.4465 50.4167 34.5822 48.7529 34.5822L42.955 34.5822V21.5939Z" fill="white"/>
</svg>
